<svg id="Capa_1" data-name="Capa 1" xmlns="http://www.w3.org/2000/svg" xmlns:xlink="http://www.w3.org/1999/xlink" viewBox="0 0 48.1473 33.4583"><defs><style>.cls-1{fill:#001d96;}.cls-2{fill:#0020f0;}.cls-3{fill:url(#Degradado_sin_nombre_23);}.cls-4{font-size:9.30313px;fill:#fff;font-family:QUARTZO demo;font-weight:700;}</style><linearGradient id="Degradado_sin_nombre_23" x1="13.7364" y1="34.65673" x2="39.57569" y2="-5.13229" gradientTransform="matrix(-1, 0, 0, 1, 48.1473, 0)" gradientUnits="userSpaceOnUse"><stop offset="0" stop-color="#0031bf"/><stop offset="0.50251" stop-color="#00add4"/><stop offset="1" stop-color="#004fd4"/></linearGradient></defs><title>eti_desta</title><polygon class="cls-1" points="41.836 3.845 47.897 6.402 47.897 25.928 41.836 30.343 41.836 3.845"/><path class="cls-2" d="M42.08686,4.22134L47.6473,6.56758V25.8L42.08686,29.8512V4.22134m-0.5-.75366V30.83411l6.56044-4.77975V6.23586L41.58686,3.46767h0Z"/><polygon class="cls-3" points="0.25 0.272 47.897 4.31 47.897 25.899 0.25 33.167 0.25 0.272"/><path class="cls-2" d="M0.5,0.54416L47.6473,4.53969v21.1446L0.5,32.87625V0.54416M0,0V33.4583l48.1473-7.3445V4.08028L0,0H0Z"/><text class="cls-4" transform="translate(3.27984 18.70173)">D<tspan x="5.54443" y="0">e</tspan><tspan x="9.77734" y="0">s</tspan><tspan x="13.76855" y="0">t</tspan><tspan x="17.03369" y="0">a</tspan><tspan x="22.02979" y="0">c</tspan><tspan x="27.15576" y="0">ado</tspan></text></svg>