<svg xmlns="http://www.w3.org/2000/svg" viewBox="0 0 711.65 199.12"><defs><style>.cls-1{fill:#97c264;}.cls-2{fill:#457943;}.cls-3{fill:#d8de3f;}.cls-4{fill:#325b3d;}.cls-5{fill:#262424;}</style></defs><title>Recurso 1</title><g id="Capa_2" data-name="Capa 2"><g id="Layer_1" data-name="Layer 1"><path class="cls-1" d="M39.79,167.7a2.94,2.94,0,0,1-1.57-.52c-10.94-7.63-10.87-13.79-8.89-17.62l.14-.24c-4.23-4-4.59-9-.94-13.55a13.34,13.34,0,0,1,1.26-1.38c-3.4-2.15-4.2-4.65-4.11-6.65.47-11.41,18-12.22,29.59-12.76a61.65,61.65,0,0,0,7.21-.57c1.18-.27,1.5-.57,1.6-6a49.51,49.51,0,0,1,1.84-14c2.08-7,6.62-11.28,11.44-15.85,6.25-5.93,12.71-12,14.79-25.35,2.22-14.19-.56-26.2-8-34.73S64.86,5.58,50.75,5.92c-29.11.69-42,18.76-44.26,34C3.55,60.1,12,70.09,19.65,77.08c1,.93,2,1.81,3,2.65l1,.87c10.24,9,4.93,12.16-3.89,4.44l-1-.86C10.58,77.06-3.15,65.12.65,39.09,3.21,21.55,17.82.79,50.61,0,66.5-.36,80,4.82,88.55,14.62S100.48,38.18,98,54.15c-2.39,15.28-9.92,22.42-16.56,28.73-4.41,4.17-8.21,7.79-9.85,13.25A43.89,43.89,0,0,0,70,108.55c-.09,5-.19,10.26-6.21,11.62a55.74,55.74,0,0,1-8.22.7c-8.29.39-23.73,1.11-24,7.11,0,.38.84,1.37,3.19,2.35l.32.13c9.48-5.56,24.24-8.69,30.11-4.17,4.16,3.21,3.61,6.11,2.91,7.55-3.14,6.47-22.21,5.64-31.13,3.4l-1.11-.3a14.29,14.29,0,0,0-2.73,2.53c-1.44,1.79-1.91,3.45.47,5.64,7.27-4.75,20.49-5.6,29.34-2.37,1.47.53,5.92,2.15,6.14,5.83.08,1.5-.52,3.63-3.89,5.32-5.83,2.93-20.54,4.11-30.8-1.17-1.08,3.37,4.62,7.81,7.21,9.61a3,3,0,0,1-1.81,5.37Zm-.11-19c8.28,3,18.81,1.75,22.52.16-.33-.15-.76-.34-1.28-.53C54.23,145.85,45.33,146.49,39.68,148.65Zm4.69-16.05c7.49.86,15.37.2,17.89-1.06a6.9,6.9,0,0,0-.68-.57C59.11,129.06,51.37,130.05,44.37,132.6Z"/><path class="cls-1" d="M54.43,85s28.94-14.57,12-53.35c0,0-42.32,14.68-18.48,53.68,0,0,4-26.92,11.78-31.12C59.69,54.2,51,77.24,54.43,85Z"/><path class="cls-1" d="M13.48,70.57S31.84,92.76,48.14,85.51a26.77,26.77,0,0,0,9.74-8.38S53.3,104.66,22.19,87C22.19,87,7.36,76.92,13.48,70.57Z"/><path class="cls-2" d="M247.21,150.38c-19,0-27.74-9.41-27.74-29.65,0-22.52,10.06-35.25,28.13-35.25,16.28,0,24.17,8.91,24.17,27.23a50.8,50.8,0,0,1-.63,8.28H239.32v1.27c0,11.2,1.91,15.14,7.64,15.14,4.84,0,7.25-3.05,7.25-8.9V128H271.9v.88C271.9,143.51,264,150.38,247.21,150.38Zm-.12-52.3c-4.84,0-7.13,3.57-7.64,11.84H254C253.83,101.26,251.92,98.08,247.09,98.08Z"/><path class="cls-2" d="M308.93,169.47c-13.1,0-20.1-1.53-25.45-5.47a10.29,10.29,0,0,1-4.2-7.89c0-4.84,3.06-8.27,8.78-10.18-4.45-3.18-6.23-6-6.23-10.05,0-5.48,3.43-9.55,11.07-12.86-8-3.18-11.71-8.9-11.71-17.69,0-12.72,9.29-19.85,26.09-19.85a47,47,0,0,1,10.05.89c1.4-9.92,6-14.89,13.36-14.89a12.17,12.17,0,0,1,5.22,1.15v12a11.51,11.51,0,0,0-1.91-.13c-3.31,0-5,1.28-7.25,5.09,6,3.82,8.91,9.55,8.91,17.19,0,12.59-9.55,19.85-26.35,19.85a28.73,28.73,0,0,1-8.78-1c-1.91,1.53-2.67,2.67-2.67,4.07,0,2.67,2.93,3.82,10.18,3.82H312c10.56,0,14,.63,18.83,3.56,4.45,2.8,6.87,7.38,6.87,13.11C337.69,163.49,328.91,169.47,308.93,169.47Zm4.33-21h-8.53c-2.29,0-3.82-.13-4.58-.13a18.92,18.92,0,0,1-1.91-.25c-1.78,1.65-2.29,2.8-2.29,4.71,0,4.71,4.84,7.51,13,7.51,8.4,0,12.35-2,12.35-6.36C321.28,150.25,318.73,148.47,313.26,148.47Zm-5-53.06c-5.09,0-7.9,3.69-7.9,10.31,0,7.38,2.55,11.07,7.77,11.07,5.6,0,8.27-3.44,8.27-10.56S313.64,95.41,308.3,95.41Z"/><path class="cls-2" d="M379.81,148.47a41.78,41.78,0,0,1-.89-5.59,23.57,23.57,0,0,1-16.41,6.74c-10.56,0-17.69-7.13-17.69-17.82,0-9.29,5.34-16.16,14.38-18.7,4.71-1.28,10.69-2,19.22-2.67V103.3c0-5.22-2.3-7.63-7.13-7.63-4.59,0-7.38,2.92-7.38,7.63a25.12,25.12,0,0,0,.38,3.56H348.13a15.3,15.3,0,0,1-.64-4.33c0-5.59,3.05-11.07,7.64-13.48,3.94-2,10.31-3.19,17.3-3.19,16.8,0,25.33,5.48,25.33,16.67v27a100.83,100.83,0,0,0,1.52,18.95ZM378.29,119c-9.8.76-13.87,4-13.87,10.57,0,4.32,2.54,7.25,6.23,7.25,4.58,0,7.64-4,7.64-9.8Z"/><path class="cls-3" d="M551.78,153.05a38.49,38.49,0,0,1-.88-5.5,23.09,23.09,0,0,1-16.11,6.62c-10.37,0-17.36-7-17.36-17.48,0-9.12,5.24-15.87,14.11-18.36,4.63-1.25,10.49-2,18.86-2.62v-7c0-5.12-2.25-7.49-7-7.49-4.49,0-7.23,2.87-7.23,7.49a25.36,25.36,0,0,0,.37,3.5H520.67a15.41,15.41,0,0,1-.62-4.25c0-5.49,3-10.86,7.5-13.24,3.87-2,10.11-3.12,17-3.12C561,91.6,569.39,97,569.39,108v26.48a100.05,100.05,0,0,0,1.49,18.61Zm-1.5-29c-9.62.74-13.62,3.86-13.62,10.36,0,4.25,2.5,7.12,6.12,7.12,4.5,0,7.5-3.87,7.5-9.62Z"/><path class="cls-3" d="M598.12,154.67c-10.37,0-15-4.37-15-14v-36H574V93.47h9.24V74.87h19v18.6h13.24v11.24H602.24v30.61c0,5.12,1.37,6.62,6,6.62a21.29,21.29,0,0,0,7.49-1.63v11.37A44.78,44.78,0,0,1,598.12,154.67Z"/><path class="cls-3" d="M639.21,154.67c-10.37,0-15-4.37-15-14v-36H615.1V93.47h9.25V74.87h19v18.6h13.24v11.24H643.33v30.61c0,5.12,1.38,6.62,6,6.62a21.24,21.24,0,0,0,7.49-1.63v11.37A44.72,44.72,0,0,1,639.21,154.67Z"/><path class="cls-3" d="M685.55,154.92c-16.11,0-24-5.24-24-16.11a20.3,20.3,0,0,1,.75-5.74h14.86a17.93,17.93,0,0,0-.37,3.25c0,4.87,2.62,7.37,7.49,7.37,4.62,0,7-2,7-5.75,0-2.87-1.37-4.37-5.36-6l-9.87-4.24c-9.5-4-13.49-9.24-13.49-17.86,0-12.62,7.62-18.74,23.48-18.74,15.11,0,22.86,5.25,22.86,15.74a20.57,20.57,0,0,1-.63,4.87H693.8a17,17,0,0,0,.12-2.12c0-4.25-2.37-6.75-6.62-6.75-3.75,0-5.87,1.75-5.87,4.75,0,2.75,1.5,4.12,6.37,6.12l12.37,4.87c7.86,3.12,11.48,8.24,11.48,16.11C711.65,148.06,702.66,154.92,685.55,154.92Z"/><path class="cls-2" d="M121.09,62.72v2.16c0,2.6-1.3,4.09-3.81,4.09s-3.8-1.49-3.8-4.09V56.43c0-2.59,1.29-4.08,3.8-4.08s3.81,1.49,3.81,4.08V58h-2.42V56.27c0-1.16-.5-1.6-1.32-1.6s-1.32.44-1.32,1.6V65c0,1.16.51,1.58,1.32,1.58s1.32-.42,1.32-1.58V62.72Z"/><path class="cls-2" d="M122.44,56.43c0-2.59,1.37-4.08,3.87-4.08s3.88,1.49,3.88,4.08v8.45c0,2.6-1.37,4.09-3.88,4.09s-3.87-1.49-3.87-4.09ZM125,65c0,1.16.51,1.61,1.32,1.61s1.32-.45,1.32-1.61V56.27c0-1.16-.51-1.6-1.32-1.6s-1.32.44-1.32,1.6Z"/><path class="cls-2" d="M137.17,68.78a5,5,0,0,1-.23-2V64.23c0-1.51-.51-2.06-1.67-2.06h-.88v6.61h-2.55V52.54h3.85c2.64,0,3.78,1.22,3.78,3.73v1.28c0,1.67-.53,2.76-1.67,3.3,1.28.53,1.69,1.76,1.69,3.45v2.51a4.85,4.85,0,0,0,.28,2Zm-2.78-13.92v5h1c1,0,1.53-.42,1.53-1.72v-1.6c0-1.16-.4-1.67-1.3-1.67Z"/><path class="cls-2" d="M148.73,56.55v2.11c0,2.6-1.25,4-3.81,4h-1.2v6.1h-2.55V52.54h3.75C147.48,52.54,148.73,54,148.73,56.55Zm-5-1.69v5.5h1.2c.82,0,1.26-.37,1.26-1.54V56.39c0-1.16-.44-1.53-1.26-1.53Z"/><path class="cls-2" d="M149.71,56.43c0-2.59,1.37-4.08,3.87-4.08s3.88,1.49,3.88,4.08v8.45c0,2.6-1.37,4.09-3.88,4.09s-3.87-1.49-3.87-4.09ZM152.26,65c0,1.16.51,1.61,1.32,1.61s1.32-.45,1.32-1.61V56.27c0-1.16-.51-1.6-1.32-1.6s-1.32.44-1.32,1.6Z"/><path class="cls-2" d="M164.44,68.78a5.21,5.21,0,0,1-.23-2V64.23c0-1.51-.51-2.06-1.67-2.06h-.88v6.61h-2.55V52.54H163c2.64,0,3.78,1.22,3.78,3.73v1.28c0,1.67-.53,2.76-1.67,3.3,1.28.53,1.7,1.76,1.7,3.45v2.51a4.85,4.85,0,0,0,.27,2Zm-2.78-13.92v5h1c1,0,1.53-.42,1.53-1.72v-1.6c0-1.16-.4-1.67-1.3-1.67Z"/><path class="cls-2" d="M176.7,68.78h-2.58l-.44-3h-3.13l-.44,3h-2.35l2.6-16.24h3.74Zm-5.83-5.15h2.46l-1.23-8.22Z"/><path class="cls-2" d="M185.26,62.72v2.16c0,2.6-1.3,4.09-3.8,4.09s-3.81-1.49-3.81-4.09V56.43c0-2.59,1.3-4.08,3.81-4.08s3.8,1.49,3.8,4.08V58h-2.41V56.27c0-1.16-.51-1.6-1.32-1.6s-1.33.44-1.33,1.6V65c0,1.16.52,1.58,1.33,1.58s1.32-.42,1.32-1.58V62.72Z"/><path class="cls-2" d="M186.82,52.54h2.55V68.78h-2.55Z"/><path class="cls-2" d="M191,56.43c0-2.59,1.37-4.08,3.87-4.08s3.88,1.49,3.88,4.08v8.45c0,2.6-1.37,4.09-3.88,4.09S191,67.48,191,64.88Zm6.61-7.33-2.36,2.58h-1.72l1.58-2.58ZM193.57,65c0,1.16.51,1.61,1.32,1.61s1.33-.45,1.33-1.61V56.27c0-1.16-.51-1.6-1.33-1.6s-1.32.44-1.32,1.6Z"/><path class="cls-2" d="M202.69,57V68.78h-2.3V52.54h3.21l2.62,9.72V52.54h2.28V68.78h-2.63Z"/><path class="cls-2" d="M254,139.66c7,0,12.43,2.43,16.34,7.27a20.2,20.2,0,0,1,4.23,16,23.8,23.8,0,0,1-9.38,16q-9.24,7.26-24.55,7.27-40.92,0-42.5-40.83c0-.87,0-2-.06-3.42-.07-1.61-.07-2.73-.07-3.29-.06-2-.06-3.79-.12-5.34,0-.56,0-5-.06-13.43-.06-8-.06-12.36-.13-13.1-.18-4.79-.43-8.71-.87-11.81-.74-5.66-2.05-9.51-4-11.44-1.56-1.61-4.23-2.42-7.89-2.42-4.23,0-8.64,3-13.3,9,.37,3.48.56,9.51.56,18.14v15c.12,4.16,1.61,6.84,4.41,8a7.25,7.25,0,0,0,4.22.56v5.28H151.44V131.9a7.52,7.52,0,0,0,4.85-.75q4.85-2.33,4.85-10.07,0-28.32-2.55-34.92a7.35,7.35,0,0,0-4-4.35,22.18,22.18,0,0,0-6.52-.62c-4.23,0-8.64,3-13.3,9v34.8c0,3.47,1.55,5.72,4.6,6.77a10.4,10.4,0,0,0,4.53.43v4.73H113.73V133a11.55,11.55,0,0,0,4.59-.37c3.05-.93,4.6-3.11,4.6-6.59V92c0-5.22-1.55-8.76-4.72-10.62a8.55,8.55,0,0,0-4.72-1.31V75.91L134.79,74v10.5c6.65-7.14,13.36-10.75,20.26-10.75,4.72,0,8.32,1,10.87,2.93,2.3,1.8,4,4.72,4.91,8.76,6.84-7.77,13.86-11.69,21.07-11.69q11.64,0,14.91,8.77c1.49,4,2.24,12.61,2.24,25.84v37.1a7.71,7.71,0,0,1-.07,1.06v1.18q0,16,8.39,25.66c5.72,6.59,13.55,9.88,23.43,9.88,9.51,0,17.21-2.49,23.05-7.39,5.28-4.48,7.95-9.7,7.95-15.72a15.47,15.47,0,0,0-3.54-9.57,15.28,15.28,0,0,0-8.2-5.9c-.68-.19-1.43.49-2.36,1.92-1.06,1.62-1.87,2.48-2.42,2.67a5.66,5.66,0,0,1-5-.43,5,5,0,0,1-2.36-3.42,4.26,4.26,0,0,1,1-3.92C249.93,140.28,251.67,139.66,254,139.66Z"/><path class="cls-3" d="M509.54,78q14.73,55.26-36.84,68.8v.42h-4.14q-10.06-27.17-15.68-42.81c-.55,1.46-1.34,3.47-2.38,6-5.55,14-9.94,26.29-13.17,36.84h-4.15Q421.93,117,416.53,101.93c-2.25-6.29-4.57-10.25-7-12-1.22-.91-2.2-1.16-3-.73V84.36h24.88v4.82c-5.31,0-7.07,2.44-5.36,7.32,1.46,4.2,5.3,15.31,11.52,33.42,5.55-14,9.7-24.4,12.44-31.41.06-.18.19-.49.31-.79-1.95-4.33-3.9-7-5.92-8.18a2.68,2.68,0,0,0-2.44-.36V84.36h24.89v4.82c-5.31,0-7.14,2.44-5.37,7.32q1.92,5.58,11.1,32.38,20.22-4.75,29-17.44,9.15-13.36,3.9-32.87c-3.47-13.12-9.51-23.12-18.11-30.13-7.87-6.41-15.67-8.78-23.54-7.08-10.06,2.14-15.07,9.34-15,21.53,0,1,1.1,1.89,3.36,2.68,2.56,1,4,1.84,4.45,2.57,1.53,2.5,1.89,4.69,1.1,6.64a5.29,5.29,0,0,1-4,3.42,7,7,0,0,1-5.8-1.16,11.37,11.37,0,0,1-4.45-6.83c-2.56-9.57-1.34-17.56,3.6-24,4.63-6,11.16-9.15,19.51-9.39,8.73-.3,16.9,2.81,24.46,9.21Q504,57.13,509.54,78Z"/><path class="cls-4" d="M512,178h6.11v1.31h-7.41v-9.72h-2l.78-1.31h1.2v-5.13h7.41v1.3H512v3.83h3.87v1.31H512Z"/><path class="cls-4" d="M521,170.88h-1.78v-1.31H521v-2.92a3.45,3.45,0,0,1,.48-1.79,3.57,3.57,0,0,1,1.28-1.28,3.52,3.52,0,0,1,1.79-.47,3.44,3.44,0,0,1,2.08.69l-.87,1a2.13,2.13,0,0,0-1.21-.36,2.24,2.24,0,0,0-2.24,2.24v2.92H524v1.31h-1.76v8.39H521Z"/><path class="cls-4" d="M525.44,165.74h1.31v1.43h-1.31Zm0,3.81h1.31v9.72h-1.31Z"/><path class="cls-4" d="M536.9,171.14l-1,.81a3.86,3.86,0,0,0-5.65-.25,3.83,3.83,0,0,0,2.73,6.55A3.58,3.58,0,0,0,535.8,177l1.05.81a5.09,5.09,0,0,1-1.74,1.32,5,5,0,0,1-2.15.46,5.13,5.13,0,1,1,0-10.26,5.17,5.17,0,0,1,2.2.47A5,5,0,0,1,536.9,171.14Z"/><path class="cls-4" d="M538,165.74h1.3v1.43H538Zm0,3.81h1.3v9.72H538Z"/><path class="cls-4" d="M548.85,176.2l1.14.64a5.14,5.14,0,0,1-1.85,2,5.06,5.06,0,0,1-2.66.74A5.13,5.13,0,1,1,548,170a5,5,0,0,1,1.82,1.69l-6.63,5.85a3.69,3.69,0,0,0,2.31.76,3.65,3.65,0,0,0,2-.55A3.86,3.86,0,0,0,548.85,176.2Zm-6.56.36,5.68-5a3.81,3.81,0,0,0-6.32,2.9A3.79,3.79,0,0,0,542.29,176.56Z"/><path class="cls-4" d="M551.08,179.27v-9.72l1.12.9a3.71,3.71,0,0,1,2.76-1.16,3.79,3.79,0,0,1,3.87,3.87v6.11h-1.3v-6.11a2.57,2.57,0,1,0-5.13,0v6.11Z"/><path class="cls-4" d="M569,171.14l-1,.81a3.66,3.66,0,0,0-2.91-1.36,3.77,3.77,0,0,0-3.83,3.83,3.66,3.66,0,0,0,1.1,2.72,3.71,3.71,0,0,0,2.73,1.11,3.58,3.58,0,0,0,2.84-1.29l1.06.81a5.19,5.19,0,0,1-1.74,1.32,5.08,5.08,0,0,1-2.16.46,5.13,5.13,0,1,1,0-10.26,5.13,5.13,0,0,1,2.2.47A4.93,4.93,0,0,1,569,171.14Z"/><path class="cls-4" d="M570.05,165.74h1.3v1.43h-1.3Zm0,3.81h1.3v9.72h-1.3Z"/><path class="cls-4" d="M581.27,178a5.13,5.13,0,1,1,0-7.08l1.42-1.33v9.72Zm-3.71-7.37a3.83,3.83,0,1,0,0,7.66,3.84,3.84,0,0,0,2.71-6.54A3.68,3.68,0,0,0,577.56,170.59Z"/><path class="cls-4" d="M601.87,171.14l-1,.81a3.86,3.86,0,0,0-5.65-.25,3.83,3.83,0,0,0,2.73,6.55,3.62,3.62,0,0,0,2.85-1.29l1,.81a5.15,5.15,0,0,1-1.73,1.32,5,5,0,0,1-2.16.46,5.13,5.13,0,1,1,0-10.26,5.18,5.18,0,0,1,2.21.47A5.08,5.08,0,0,1,601.87,171.14Z"/><path class="cls-4" d="M607.72,169.29a5.14,5.14,0,1,1-3.61,1.49A4.92,4.92,0,0,1,607.72,169.29Zm0,1.3a3.83,3.83,0,1,0,0,7.66,3.84,3.84,0,0,0,2.71-6.54A3.68,3.68,0,0,0,607.72,170.59Z"/><path class="cls-4" d="M613.92,179.27v-9.72l1.12.9a3.67,3.67,0,0,1,2.75-1.16,3.79,3.79,0,0,1,3.87,3.87v6.11h-1.3v-6.11a2.48,2.48,0,0,0-.74-1.84,2.53,2.53,0,0,0-1.83-.73,2.56,2.56,0,0,0-2.56,2.57v6.11Z"/><path class="cls-4" d="M640.85,171.14l-1,.81a3.84,3.84,0,1,0-2.92,6.3,3.59,3.59,0,0,0,2.85-1.29l1,.81a5.15,5.15,0,0,1-1.73,1.32,5.09,5.09,0,0,1-2.17.46,5.13,5.13,0,0,1,0-10.26,4.9,4.9,0,0,1,4,1.85Z"/><path class="cls-4" d="M641.91,179.27V163.11h1.31v16.16Z"/><path class="cls-4" d="M653.13,178a5.13,5.13,0,1,1,0-7.08l1.43-1.33v9.72Zm-3.71-7.37a3.82,3.82,0,1,0,2.71,1.12A3.7,3.7,0,0,0,649.42,170.59Z"/><path class="cls-4" d="M661.07,169.52l-.6,1.17a2,2,0,0,0-.68-.1,2.39,2.39,0,0,0-1.8.74,2.45,2.45,0,0,0-.7,1.76v6.18H656v-9.72l1.1.88a3.57,3.57,0,0,1,2.71-1.14A3.47,3.47,0,0,1,661.07,169.52Z"/><path class="cls-4" d="M662.14,165.74h1.3v1.43h-1.3Zm0,3.81h1.3v9.72h-1.3Z"/><path class="cls-4" d="M669.65,169.29a5,5,0,0,1,3.83,1.71v-7.89h1.3v16.16L673.36,178a5,5,0,0,1-3.71,1.59,5.13,5.13,0,0,1,0-10.26Zm0,1.3a3.83,3.83,0,1,0,0,7.66,3.83,3.83,0,0,0,2.71-6.54A3.68,3.68,0,0,0,669.65,170.59Z"/><path class="cls-4" d="M684.69,178a5.13,5.13,0,1,1,0-7.08l1.43-1.33v9.72Zm-3.7-7.37a3.83,3.83,0,1,0,2.7,6.54,3.83,3.83,0,0,0-2.7-6.54Z"/><path class="cls-4" d="M692.32,169.29a5,5,0,0,1,3.83,1.71v-7.89h1.31v16.16L696,178a5,5,0,0,1-3.71,1.59,5.13,5.13,0,0,1,0-10.26Zm0,1.3a3.82,3.82,0,1,0,2.71,1.12A3.69,3.69,0,0,0,692.32,170.59Z"/><path class="cls-5" d="M592.34,189.77a14.18,14.18,0,0,1,2.31-.19,3.87,3.87,0,0,1,2.7.76,2.37,2.37,0,0,1,.73,1.78,2.44,2.44,0,0,1-1.74,2.37v0a2.34,2.34,0,0,1,1.35,1.88,15.81,15.81,0,0,0,.72,2.56h-1.24a12.1,12.1,0,0,1-.61-2.23c-.27-1.28-.79-1.77-1.88-1.81h-1.13v4h-1.21Zm1.21,4.25h1.23c1.28,0,2.1-.71,2.1-1.77s-.87-1.73-2.14-1.73a4.92,4.92,0,0,0-1.19.1Z"/><path class="cls-5" d="M599.46,198.25a.82.82,0,0,1,.82-.87.81.81,0,0,1,.82.87.82.82,0,0,1-.84.87A.8.8,0,0,1,599.46,198.25Z"/><path class="cls-5" d="M603.85,189.65V199h-1.21v-9.32Z"/><path class="cls-5" d="M605.63,198.25a.82.82,0,0,1,.82-.87.81.81,0,0,1,.82.87.82.82,0,0,1-.84.87A.81.81,0,0,1,605.63,198.25Z"/><path class="cls-5" d="M608.8,189.65h5v1H610v3.09h3.52v1H610V199H608.8Z"/><path class="cls-5" d="M613.88,198.25a.83.83,0,0,1,.83-.87.81.81,0,0,1,.82.87.82.82,0,0,1-.84.87A.81.81,0,0,1,613.88,198.25Z"/><path class="cls-5" d="M616.76,193.38a.81.81,0,0,1,.81-.87.87.87,0,1,1-.81.87Zm0,4.88a.81.81,0,0,1,.81-.87.87.87,0,1,1-.81.87Z"/><path class="cls-5" d="M624.77,189.65H626v6.23c0,2.48-1.21,3.24-2.82,3.24a3.87,3.87,0,0,1-1.28-.22l.16-1a3.08,3.08,0,0,0,1,.18c1.08,0,1.7-.49,1.7-2.31Z"/><path class="cls-5" d="M630.77,194.79v.89h-3.41v-.89Z"/><path class="cls-5" d="M632.1,197.59a4.28,4.28,0,0,0,2,.55c1.55,0,2-1,2-1.74,0-1.26-1.14-1.8-2.32-1.8h-.68v-.91h.68c.89,0,2-.46,2-1.52,0-.72-.46-1.36-1.58-1.36a3.29,3.29,0,0,0-1.8.6l-.33-.89a4.33,4.33,0,0,1,2.37-.69c1.76,0,2.57,1,2.57,2.14a2.26,2.26,0,0,1-1.66,2.13v0a2.33,2.33,0,0,1,2,2.29c0,1.44-1.13,2.7-3.27,2.7a4.57,4.57,0,0,1-2.34-.61Z"/><path class="cls-5" d="M644.89,194.38c0,3.05-1.14,4.74-3.12,4.74-1.76,0-3-1.65-3-4.62s1.32-4.67,3.14-4.67S644.89,191.52,644.89,194.38Zm-4.88.14c0,2.33.72,3.66,1.83,3.66s1.82-1.45,1.82-3.75-.55-3.66-1.82-3.66C640.79,190.77,640,192.07,640,194.52Z"/><path class="cls-5" d="M646.71,198.11a5,5,0,0,0,1,0,3.28,3.28,0,0,0,1.88-.87,3.89,3.89,0,0,0,1.19-2.38h0a2.64,2.64,0,0,1-2.13,1A2.6,2.6,0,0,1,646,193a3.08,3.08,0,0,1,3.07-3.19c1.84,0,3,1.48,3,3.8a5.63,5.63,0,0,1-1.55,4.2,4.46,4.46,0,0,1-2.61,1.21,5.91,5.91,0,0,1-1.12.07Zm.44-5.16a1.73,1.73,0,0,0,1.73,1.91,2,2,0,0,0,1.77-.94.84.84,0,0,0,.11-.46c0-1.53-.57-2.7-1.85-2.7C647.89,190.76,647.15,191.67,647.15,193Z"/><path class="cls-5" d="M654.76,194.24a2.23,2.23,0,0,1-1.44-2,2.53,2.53,0,0,1,2.8-2.39,2.32,2.32,0,0,1,2.62,2.21,2.27,2.27,0,0,1-1.49,2.1v0a2.52,2.52,0,0,1,1.81,2.33,2.76,2.76,0,0,1-3,2.61c-1.89,0-3-1.11-3-2.42a2.59,2.59,0,0,1,1.79-2.42Zm3.07,2.39c0-1.08-.76-1.62-2-2a2,2,0,0,0-1.61,1.86,1.66,1.66,0,0,0,1.79,1.7A1.62,1.62,0,0,0,657.83,196.63Zm-3.34-4.49c0,.9.67,1.38,1.71,1.66a1.79,1.79,0,0,0,1.37-1.63,1.4,1.4,0,0,0-1.52-1.47A1.43,1.43,0,0,0,654.49,192.14Z"/><path class="cls-5" d="M660.49,197.59a4.28,4.28,0,0,0,2,.55c1.55,0,2-1,2-1.74,0-1.26-1.14-1.8-2.32-1.8h-.68v-.91h.68c.89,0,2-.46,2-1.52,0-.72-.46-1.36-1.58-1.36a3.29,3.29,0,0,0-1.8.6l-.33-.89a4.32,4.32,0,0,1,2.36-.69c1.77,0,2.58,1,2.58,2.14a2.26,2.26,0,0,1-1.66,2.13v0a2.33,2.33,0,0,1,2,2.29c0,1.44-1.13,2.7-3.28,2.7a4.56,4.56,0,0,1-2.33-.61Z"/><path class="cls-5" d="M668,198.11a5,5,0,0,0,1,0,3.34,3.34,0,0,0,1.89-.87,3.94,3.94,0,0,0,1.18-2.38h0a2.71,2.71,0,0,1-4.77-1.8,3.08,3.08,0,0,1,3.07-3.19c1.84,0,3,1.48,3,3.8a5.67,5.67,0,0,1-1.54,4.2,4.52,4.52,0,0,1-2.62,1.21,5.91,5.91,0,0,1-1.12.07Zm.44-5.16a1.73,1.73,0,0,0,1.73,1.91,2,2,0,0,0,1.77-.94.84.84,0,0,0,.11-.46c0-1.53-.56-2.7-1.85-2.7C669.18,190.76,668.44,191.67,668.44,193Z"/><path class="cls-5" d="M674.69,197.59a4.24,4.24,0,0,0,2,.55c1.54,0,2-1,2-1.74,0-1.26-1.15-1.8-2.32-1.8h-.68v-.91h.68c.88,0,2-.46,2-1.52,0-.72-.46-1.36-1.58-1.36a3.25,3.25,0,0,0-1.79.6l-.33-.89a4.29,4.29,0,0,1,2.36-.69c1.77,0,2.57,1,2.57,2.14A2.26,2.26,0,0,1,678,194.1v0a2.34,2.34,0,0,1,2,2.29c0,1.44-1.14,2.7-3.28,2.7a4.57,4.57,0,0,1-2.34-.61Z"/><path class="cls-5" d="M681.49,199v-.75l1-.93c2.3-2.18,3.35-3.34,3.35-4.7a1.59,1.59,0,0,0-1.77-1.75,3.07,3.07,0,0,0-1.91.76l-.38-.86a4,4,0,0,1,2.53-.91,2.53,2.53,0,0,1,2.75,2.61c0,1.66-1.21,3-3.1,4.83l-.7.66v0h4v1Z"/><path class="cls-5" d="M691.8,194.79v.89h-3.42v-.89Z"/><path class="cls-5" d="M692.84,199v-.75l.95-.93c2.29-2.18,3.35-3.34,3.35-4.7a1.59,1.59,0,0,0-1.77-1.75,3,3,0,0,0-1.91.76l-.39-.86a4,4,0,0,1,2.53-.91,2.53,2.53,0,0,1,2.75,2.61c0,1.66-1.2,3-3.1,4.83l-.7.66v0h4v1Z"/></g></g></svg>